# xmcd CD database generated by RipIT
#
# Track frame offsets:
# 150
# 17392
# 43864
# 68870
#
# Disc length: 1187 seconds
#
# Revision: 0
# Processed by: cddbd v1.5.1PL2 Copyright (c) Steve Scherf et al.
# Submitted via: RipIT 3.5.0 www.suwald.com/ripit/ripit.html at Wed Dec 21 07:19:53 CET 2005
#
DISCID=2b04a104
DTITLE=Tanga - Blue Days
DYEAR=1998
DGENRE=Trip-Hop
TTITLE0=Blue Days (Radio Edit)
TTITLE1=Blue Days (Terranova Remix)
TTITLE2=Blue Days (Okawango Delta Dub By nor.ton)
TTITLE3=Schlinge and Schlange 
EXTD=
EXTT0=
EXTT1=
EXTT2=
EXTT3=
PLAYORDER=
